<svg width="685" height="212" viewBox="0 0 685 212" fill="none" xmlns="http://www.w3.org/2000/svg">
<path d="M202.829 11.3942C197.537 5.87631 190.114 2.42076 181.87 2.40033C181.787 2.40161 181.705 2.40544 181.622 2.40671C180.971 2.41055 180.329 2.44758 179.692 2.49355C179.3 2.52292 178.912 2.55995 178.525 2.60465C178.11 2.6519 177.698 2.70809 177.289 2.77321C175.921 2.99158 174.586 3.30188 173.289 3.70414C173.265 3.7118 173.241 3.72074 173.218 3.72841C172.38 3.99019 171.56 4.29155 170.757 4.62485C170.638 4.67465 170.518 4.72574 170.398 4.77682C169.789 5.03988 169.193 5.32848 168.605 5.62985C168.323 5.7767 168.042 5.92228 167.765 6.07679C167.497 6.22748 167.229 6.38072 166.964 6.53906C166.4 6.8813 165.845 7.2363 165.307 7.61557C165.228 7.6692 165.152 7.72539 165.075 7.7803C159.117 12.0684 154.857 18.5849 153.417 26.1103C152.091 34.4797 153.813 35.62 153.771 40.9246C153.716 48.1243 148.723 56.9483 142.596 63.3806C136.162 69.5088 127.338 74.5006 120.14 74.5568C114.834 74.5989 113.693 72.8763 105.325 74.2018C97.7986 75.6422 91.2821 79.9023 86.9952 85.8595C86.9403 85.9374 86.8841 86.014 86.8305 86.0919C86.4499 86.6308 86.0949 87.1863 85.7527 87.7494C85.5943 88.0138 85.4424 88.2819 85.2917 88.5514C85.1359 88.8272 84.9916 89.1081 84.8448 89.3903C84.5421 89.9778 84.2548 90.5741 83.9917 91.1845C83.9394 91.3033 83.8883 91.4233 83.8385 91.5434C83.5052 92.3466 83.2038 93.1664 82.942 94.0029C82.9344 94.0271 82.9254 94.0514 82.919 94.0744C82.5168 95.3705 82.2065 96.7075 81.9868 98.0739C81.923 98.4838 81.8655 98.895 81.8183 99.3113C81.7736 99.697 81.7378 100.086 81.7072 100.477C81.6612 101.116 81.6254 101.757 81.6203 102.407C81.6203 102.49 81.6152 102.571 81.6152 102.656C81.6344 110.899 85.0899 118.322 90.6078 123.614L90.6091 123.615L90.6104 123.616C95.901 129.134 103.324 132.588 111.568 132.609C111.651 132.608 111.733 132.603 111.816 132.603C112.466 132.599 113.108 132.562 113.746 132.516C114.136 132.486 114.526 132.449 114.913 132.405C115.328 132.357 115.74 132.301 116.149 132.236C117.515 132.016 118.852 131.707 120.149 131.305C120.173 131.297 120.197 131.288 120.221 131.281C121.058 131.019 121.878 130.718 122.681 130.384C122.801 130.335 122.92 130.283 123.04 130.232C123.649 129.968 124.245 129.682 124.833 129.379C125.115 129.233 125.396 129.087 125.673 128.931C125.942 128.782 126.209 128.629 126.475 128.47C127.038 128.129 127.593 127.773 128.131 127.394C128.209 127.339 128.286 127.284 128.363 127.229C134.321 122.941 138.581 116.424 140.021 108.899C141.347 100.53 139.625 99.3892 139.667 94.0846C139.724 86.8849 144.715 78.0609 150.842 71.6274C157.276 65.5004 166.099 60.5086 173.298 60.4524C178.604 60.4103 179.745 62.1317 188.113 60.8074C195.639 59.367 202.155 55.1057 206.443 49.1485C206.498 49.0719 206.554 48.9952 206.608 48.9173C206.987 48.3785 207.343 47.8242 207.685 47.2598C207.844 46.9955 207.996 46.7273 208.146 46.4579C208.302 46.182 208.446 45.8998 208.593 45.6189C208.896 45.0315 209.183 44.4351 209.446 43.8247C209.497 43.7059 209.548 43.5859 209.598 43.4659C209.933 42.6626 210.234 41.8428 210.496 41.0064C210.504 40.9821 210.513 40.9578 210.519 40.9349C210.921 39.6387 211.232 38.3017 211.451 36.934C211.515 36.5254 211.572 36.1129 211.618 35.6979C211.664 35.3123 211.7 34.9228 211.731 34.532C211.777 33.8935 211.813 33.2525 211.816 32.6025C211.818 32.5195 211.823 32.4378 211.823 32.3535C211.804 24.1105 208.347 16.6873 202.83 11.3955C202.829 11.3955 202.829 11.3942 202.829 11.3942Z" fill="#0D5F9B"/>
<path d="M209.395 90.0121C204.105 84.4942 196.68 81.0387 188.436 81.0183C188.353 81.0195 188.271 81.0234 188.187 81.0246C187.537 81.0285 186.896 81.0655 186.257 81.1115C185.867 81.1421 185.478 81.1779 185.092 81.2226C184.676 81.2698 184.264 81.326 183.855 81.3911C182.488 81.6095 181.152 81.9198 179.856 82.3221C179.832 82.3297 179.807 82.3387 179.784 82.3463C178.947 82.6081 178.127 82.9095 177.324 83.2428C177.204 83.2926 177.085 83.3437 176.965 83.3947C176.356 83.6578 175.758 83.9464 175.171 84.2478C174.89 84.3946 174.607 84.5402 174.332 84.6947C174.063 84.8454 173.795 84.9986 173.531 85.157C172.966 85.4992 172.411 85.8542 171.872 86.2335C171.794 86.2871 171.718 86.3433 171.641 86.3982C165.684 90.6864 161.424 97.2029 159.983 104.728C158.658 113.098 160.379 114.238 160.337 119.543C160.282 126.742 155.289 135.566 149.162 141.998C142.728 148.127 133.904 153.119 126.705 153.175C121.4 153.217 120.26 151.494 111.892 152.82C104.365 154.26 97.8485 158.52 93.5616 164.477C93.5067 164.555 93.4505 164.632 93.3969 164.71C93.0163 165.249 92.6613 165.804 92.3191 166.367C92.1608 166.632 92.0088 166.9 91.8581 167.169C91.7023 167.445 91.558 167.726 91.4112 168.008C91.1085 168.596 90.8212 169.192 90.5581 169.802C90.5058 169.921 90.4547 170.041 90.4049 170.161C90.0716 170.965 89.7702 171.784 89.5084 172.621C89.5008 172.645 89.4918 172.669 89.4854 172.692C89.0832 173.988 88.7729 175.325 88.5532 176.692C88.4881 177.102 88.4319 177.513 88.3847 177.929C88.34 178.315 88.3042 178.704 88.2736 179.095C88.2276 179.734 88.1906 180.375 88.1867 181.025C88.1867 181.108 88.1816 181.189 88.1816 181.274C88.2008 189.517 91.6563 196.94 97.1742 202.232L97.1755 202.233C102.466 207.751 109.891 211.206 118.134 211.227C118.218 211.226 118.3 211.22 118.383 211.22C119.033 211.217 119.674 211.18 120.312 211.134C120.703 211.103 121.092 211.067 121.479 211.022C121.894 210.975 122.307 210.919 122.715 210.854C124.082 210.634 125.419 210.325 126.715 209.923C126.739 209.915 126.763 209.906 126.786 209.899C127.624 209.637 128.444 209.336 129.246 209.002C129.367 208.952 129.486 208.901 129.605 208.85C130.215 208.586 130.812 208.3 131.399 207.997C131.681 207.85 131.962 207.705 132.238 207.549C132.509 207.4 132.776 207.246 133.04 207.088C133.604 206.746 134.16 206.391 134.697 206.012C134.775 205.957 134.852 205.902 134.93 205.846C140.887 201.559 145.147 195.042 146.588 187.517C147.913 179.147 146.192 178.007 146.234 172.702C146.29 165.503 151.282 156.679 157.409 150.247C163.842 144.118 172.665 139.127 179.865 139.07C185.169 139.028 186.311 140.75 194.679 139.425C202.205 137.985 208.721 133.724 213.009 127.768C213.064 127.69 213.12 127.613 213.174 127.535C213.553 126.996 213.909 126.442 214.252 125.878C214.41 125.613 214.562 125.345 214.713 125.076C214.867 124.8 215.013 124.518 215.16 124.237C215.462 123.649 215.75 123.053 216.013 122.443C216.064 122.324 216.115 122.204 216.165 122.084C216.499 121.281 216.801 120.461 217.062 119.624C217.07 119.6 217.078 119.576 217.085 119.553C217.488 118.257 217.798 116.92 218.018 115.552C218.081 115.143 218.139 114.731 218.185 114.316C218.23 113.93 218.267 113.541 218.296 113.15C218.342 112.511 218.379 111.87 218.383 111.22C218.384 111.137 218.389 111.056 218.389 110.971C218.37 102.728 214.913 95.3052 209.397 90.0134L209.395 90.0121Z" fill="#72AF35"/>
<path d="M121.44 9.76675C116.148 4.24886 108.725 0.793323 100.481 0.772892C100.398 0.774169 100.316 0.777996 100.233 0.779273C99.5819 0.783104 98.9408 0.820138 98.3023 0.866109C97.9116 0.896757 97.5234 0.932511 97.1364 0.977205C96.7214 1.02445 96.3089 1.08065 95.9003 1.14577C94.5326 1.36414 93.1969 1.67444 91.9008 2.0767C91.8765 2.08436 91.8522 2.0933 91.8293 2.10097C90.9915 2.36275 90.1717 2.66411 89.3685 2.99741C89.2497 3.04721 89.1297 3.0983 89.0096 3.14937C88.4005 3.41244 87.8042 3.70103 87.2167 4.00241C86.9345 4.14926 86.6523 4.29483 86.3765 4.44935C86.1083 4.60004 85.8401 4.75327 85.5758 4.91162C85.0114 5.25386 84.4559 5.60886 83.917 5.98813C83.8391 6.04176 83.7625 6.09795 83.6858 6.15286C77.7287 10.441 73.4686 16.9575 72.0282 24.4828C70.7026 32.8522 72.424 33.9926 72.3819 39.2972C72.327 46.4969 67.3339 55.3209 61.2069 61.7531C54.7734 67.8814 45.9506 72.8732 38.7497 72.9294C33.445 72.9715 32.3047 71.2488 23.9365 72.5744C16.4099 74.0148 9.89469 78.2749 5.60654 84.232C5.55163 84.3099 5.49544 84.3865 5.44181 84.4644C5.06127 85.0033 4.70626 85.5588 4.36402 86.122C4.20568 86.3863 4.05371 86.6545 3.90303 86.9239C3.74724 87.1998 3.60166 87.4807 3.45608 87.7629C3.15343 88.3503 2.86611 88.9467 2.60305 89.5571C2.55069 89.6758 2.50089 89.7959 2.44981 89.9159C2.11651 90.7191 1.81514 91.539 1.55335 92.3754C1.54569 92.3997 1.53675 92.4239 1.53037 92.4469C1.12684 93.7431 0.817812 95.0801 0.598169 96.4465C0.534319 96.8564 0.476848 97.2676 0.430877 97.6839C0.384905 98.0695 0.349152 98.459 0.318504 98.8498C0.272533 99.4883 0.236775 100.129 0.232944 100.779C0.231667 100.862 0.226562 100.944 0.226562 101.028C0.245717 109.271 3.70127 116.696 9.21916 121.986L9.22044 121.988C14.511 127.505 21.9355 130.961 30.1785 130.981C30.2628 130.98 30.3445 130.975 30.4275 130.975C31.0788 130.971 31.7185 130.934 32.357 130.888C32.7491 130.858 33.1373 130.822 33.5242 130.777C33.9392 130.73 34.3517 130.674 34.7603 130.609C36.128 130.389 37.4637 130.08 38.7599 129.678C38.7841 129.67 38.8084 129.661 38.8314 129.653C39.6691 129.392 40.4889 129.09 41.2922 128.757C41.4122 128.707 41.531 128.656 41.6497 128.605C42.2601 128.341 42.8565 128.055 43.4439 127.752C43.7261 127.605 44.0071 127.46 44.2829 127.304C44.5536 127.154 44.8205 127.002 45.0848 126.843C45.6493 126.502 46.2048 126.145 46.7424 125.766C46.8203 125.711 46.8969 125.656 46.9748 125.6C52.932 121.313 57.192 114.797 58.6325 107.272C59.958 98.9021 58.2366 97.7618 58.2775 92.4571C58.3349 85.2574 63.3267 76.4334 69.4537 69.9999C75.8872 63.8729 84.71 58.8812 91.9097 58.825C97.2143 58.7828 98.356 60.5042 106.724 59.18C114.249 57.7395 120.766 53.4782 125.054 47.521C125.109 47.4444 125.165 47.3678 125.219 47.2899C125.598 46.751 125.954 46.1968 126.297 45.6324C126.455 45.368 126.607 45.0999 126.758 44.8304C126.913 44.5546 127.058 44.2724 127.205 43.9914C127.507 43.404 127.795 42.8077 128.058 42.1973C128.109 42.0785 128.16 41.9585 128.21 41.8384C128.544 41.0352 128.845 40.2154 129.107 39.3789C129.115 39.3547 129.124 39.3304 129.13 39.3074C129.533 38.0113 129.843 36.6743 130.062 35.3079C130.126 34.898 130.184 34.4855 130.23 34.0705C130.276 33.6848 130.311 33.2953 130.341 32.9046C130.387 32.2661 130.424 31.625 130.428 30.975C130.429 30.892 130.434 30.8103 130.434 30.726C130.415 22.483 126.958 15.0599 121.441 9.76803C121.44 9.76803 121.44 9.76675 121.44 9.76675Z" fill="#1D99C7"/>
<path d="M240.492 171.126C240.173 170.807 240.015 170.389 240.015 169.871V155.139C240.015 154.621 240.173 154.208 240.492 153.899C240.811 153.592 241.229 153.436 241.748 153.436H251.638C251.737 153.556 251.822 153.726 251.892 153.944C251.961 154.164 251.997 154.402 251.997 154.66C251.997 155.1 251.892 155.438 251.683 155.677C251.473 155.917 251.19 156.036 250.831 156.036H243.182V160.996H250.741C250.841 161.116 250.925 161.285 250.996 161.504C251.065 161.723 251.1 161.962 251.1 162.22C251.1 162.68 250.996 163.017 250.786 163.237C250.577 163.456 250.293 163.566 249.934 163.566H243.182V169.004H251.787C251.866 169.124 251.947 169.292 252.026 169.512C252.105 169.731 252.146 169.97 252.146 170.229C252.146 170.687 252.041 171.031 251.832 171.259C251.623 171.489 251.339 171.604 250.98 171.604H241.748C241.229 171.604 240.811 171.444 240.492 171.126Z" fill="#0D5F9B"/>
<path d="M264.144 160.369C263.596 159.91 262.854 159.682 261.918 159.682C261.22 159.682 260.598 159.771 260.05 159.95C259.502 160.13 259.03 160.329 258.631 160.549V171.514C258.492 171.573 258.297 171.628 258.049 171.678C257.799 171.729 257.525 171.753 257.227 171.753C256.648 171.753 256.22 171.643 255.942 171.423C255.662 171.205 255.524 170.836 255.524 170.319V160.458C255.524 159.999 255.613 159.632 255.793 159.352C255.971 159.074 256.27 158.795 256.689 158.516C257.247 158.177 257.974 157.868 258.87 157.589C259.767 157.31 260.783 157.171 261.918 157.171C263.85 157.171 265.364 157.604 266.459 158.471C267.555 159.337 268.103 160.648 268.103 162.4V171.514C267.964 171.573 267.764 171.628 267.505 171.678C267.246 171.729 266.968 171.753 266.669 171.753C266.09 171.753 265.662 171.643 265.384 171.423C265.104 171.205 264.967 170.836 264.967 170.319V162.52C264.967 161.543 264.692 160.826 264.144 160.369Z" fill="#0D5F9B"/>
<path d="M282.503 157.289C282.941 157.289 283.3 157.394 283.578 157.602C283.858 157.811 283.997 158.146 283.997 158.603C283.997 158.843 283.922 159.245 283.772 159.814C283.623 160.382 283.419 161.043 283.161 161.801C282.901 162.558 282.612 163.375 282.294 164.251C281.974 165.128 281.636 165.998 281.278 166.865C280.92 167.732 280.565 168.558 280.217 169.345C279.869 170.133 279.544 170.805 279.245 171.363C279.086 171.462 278.847 171.557 278.529 171.646C278.21 171.736 277.851 171.781 277.453 171.781C276.477 171.781 275.84 171.512 275.541 170.974C275.261 170.476 274.893 169.695 274.435 168.629C273.977 167.564 273.509 166.398 273.03 165.132C272.553 163.867 272.089 162.602 271.641 161.337C271.193 160.073 270.839 158.982 270.581 158.065C270.76 157.847 270.999 157.662 271.297 157.512C271.596 157.364 271.914 157.289 272.254 157.289C272.712 157.289 273.075 157.394 273.344 157.602C273.614 157.811 273.827 158.175 273.987 158.694L275.63 163.832C275.749 164.211 275.888 164.629 276.048 165.087C276.207 165.546 276.367 166.009 276.527 166.477C276.686 166.946 276.845 167.394 277.004 167.822C277.164 168.251 277.293 168.613 277.394 168.912H277.543C278.22 167.04 278.867 165.153 279.484 163.25C280.102 161.348 280.64 159.47 281.098 157.617C281.476 157.399 281.945 157.289 282.503 157.289Z" fill="#0D5F9B"/>
<path d="M290.299 171.514C290.16 171.574 289.965 171.629 289.716 171.679C289.467 171.729 289.183 171.753 288.865 171.753C288.286 171.753 287.858 171.644 287.58 171.425C287.3 171.206 287.161 170.837 287.161 170.319V157.679C287.321 157.64 287.525 157.59 287.774 157.53C288.023 157.471 288.307 157.44 288.625 157.44C289.203 157.44 289.627 157.55 289.895 157.769C290.165 157.988 290.299 158.366 290.299 158.905V171.514ZM286.833 153.288C286.833 152.769 287.012 152.335 287.371 151.988C287.729 151.639 288.187 151.464 288.745 151.464C289.303 151.464 289.751 151.639 290.089 151.988C290.428 152.335 290.598 152.769 290.598 153.288C290.598 153.806 290.428 154.239 290.089 154.586C289.751 154.936 289.303 155.11 288.745 155.11C288.187 155.11 287.729 154.936 287.371 154.586C287.012 154.239 286.833 153.806 286.833 153.288Z" fill="#0D5F9B"/>
<path d="M297.678 171.514C297.539 171.574 297.345 171.629 297.096 171.679C296.847 171.729 296.572 171.753 296.274 171.753C295.696 171.753 295.267 171.644 294.989 171.425C294.71 171.206 294.571 170.837 294.571 170.319V160.519C294.571 160.02 294.671 159.618 294.87 159.307C295.069 159 295.387 158.706 295.825 158.426C296.404 158.069 297.141 157.769 298.037 157.53C298.934 157.291 299.919 157.172 300.996 157.172C302.748 157.172 303.625 157.669 303.625 158.665C303.625 158.905 303.584 159.129 303.505 159.338C303.425 159.547 303.335 159.731 303.237 159.89C303.037 159.851 302.787 159.812 302.49 159.772C302.191 159.731 301.872 159.712 301.533 159.712C300.737 159.712 300.009 159.796 299.352 159.965C298.695 160.135 298.137 160.349 297.678 160.607V171.514Z" fill="#0D5F9B"/>
<path d="M312.207 159.673C311.012 159.673 310.065 160.1 309.368 160.957C308.671 161.814 308.322 163.018 308.322 164.573C308.322 166.127 308.661 167.327 309.338 168.172C310.016 169.02 310.972 169.443 312.207 169.443C313.442 169.443 314.398 169.02 315.075 168.172C315.752 167.327 316.092 166.127 316.092 164.573C316.092 163.039 315.748 161.838 315.06 160.973C314.373 160.106 313.421 159.673 312.207 159.673ZM319.288 164.573C319.288 165.709 319.119 166.734 318.781 167.65C318.441 168.567 317.969 169.343 317.361 169.981C316.753 170.618 316.011 171.112 315.135 171.459C314.258 171.808 313.282 171.983 312.207 171.983C311.132 171.983 310.155 171.808 309.279 171.459C308.401 171.112 307.66 170.618 307.052 169.981C306.445 169.343 305.971 168.567 305.633 167.65C305.295 166.734 305.126 165.709 305.126 164.573C305.126 163.437 305.295 162.412 305.633 161.495C305.971 160.579 306.45 159.803 307.067 159.164C307.684 158.527 308.431 158.034 309.308 157.684C310.185 157.337 311.151 157.162 312.207 157.162C313.263 157.162 314.228 157.337 315.106 157.684C315.982 158.034 316.729 158.531 317.346 159.179C317.964 159.827 318.441 160.604 318.781 161.509C319.119 162.416 319.288 163.437 319.288 164.573Z" fill="#0D5F9B"/>
<path d="M331.286 160.369C330.738 159.91 329.996 159.682 329.06 159.682C328.361 159.682 327.74 159.771 327.192 159.95C326.644 160.13 326.171 160.329 325.773 160.549V171.514C325.634 171.573 325.438 171.628 325.191 171.678C324.94 171.729 324.667 171.753 324.368 171.753C323.79 171.753 323.362 171.643 323.084 171.423C322.804 171.205 322.666 170.836 322.666 170.319V160.458C322.666 159.999 322.754 159.632 322.934 159.352C323.113 159.074 323.412 158.795 323.831 158.516C324.389 158.177 325.115 157.868 326.012 157.589C326.908 157.31 327.925 157.171 329.06 157.171C330.992 157.171 332.505 157.604 333.601 158.471C334.697 159.337 335.244 160.648 335.244 162.4V171.514C335.105 171.573 334.906 171.628 334.647 171.678C334.388 171.729 334.109 171.753 333.81 171.753C333.232 171.753 332.804 171.643 332.526 171.423C332.246 171.205 332.108 170.836 332.108 170.319V162.52C332.108 161.543 331.834 160.826 331.286 160.369Z" fill="#0D5F9B"/>
<path d="M356.024 160.293C355.538 159.886 354.875 159.682 354.039 159.682C353.481 159.682 352.947 159.786 352.44 159.994C351.932 160.204 351.468 160.487 351.05 160.846C351.091 161.006 351.121 161.174 351.141 161.353C351.16 161.533 351.17 161.712 351.17 161.892V171.513C351.031 171.573 350.832 171.628 350.572 171.678C350.312 171.727 350.043 171.753 349.766 171.753C349.187 171.753 348.76 171.643 348.481 171.423C348.201 171.205 348.062 170.836 348.062 170.319V162.22C348.062 161.344 347.813 160.701 347.315 160.293C346.817 159.886 346.151 159.682 345.313 159.682C344.755 159.682 344.227 159.771 343.729 159.948C343.231 160.128 342.813 160.328 342.474 160.547V171.513C342.335 171.573 342.141 171.628 341.892 171.678C341.643 171.727 341.368 171.753 341.071 171.753C340.492 171.753 340.063 171.643 339.785 171.423C339.506 171.205 339.367 170.836 339.367 170.319V160.458C339.367 159.999 339.457 159.63 339.637 159.352C339.815 159.074 340.114 158.794 340.533 158.514C341.11 158.138 341.837 157.818 342.714 157.558C343.59 157.3 344.476 157.171 345.373 157.171C346.309 157.171 347.15 157.3 347.898 157.558C348.645 157.818 349.258 158.196 349.735 158.694C350.293 158.256 350.956 157.892 351.722 157.604C352.49 157.315 353.381 157.171 354.399 157.171C355.174 157.171 355.899 157.265 356.579 157.454C357.257 157.645 357.838 157.942 358.327 158.351C358.816 158.76 359.196 159.272 359.476 159.89C359.756 160.508 359.895 161.245 359.895 162.1V171.513C359.735 171.573 359.531 171.628 359.282 171.678C359.032 171.727 358.761 171.753 358.461 171.753C357.882 171.753 357.453 171.643 357.176 171.423C356.898 171.205 356.757 170.836 356.757 170.319V162.22C356.757 161.344 356.513 160.701 356.024 160.293Z" fill="#0D5F9B"/>
<path d="M370.14 159.582C369.046 159.582 368.134 159.951 367.406 160.687C366.68 161.424 366.295 162.481 366.256 163.855L373.607 162.809C373.527 161.913 373.199 161.152 372.62 160.523C372.042 159.895 371.217 159.582 370.14 159.582ZM366.436 166.155C366.714 167.292 367.257 168.133 368.064 168.681C368.871 169.229 369.902 169.503 371.157 169.503C371.993 169.503 372.761 169.373 373.458 169.114C374.155 168.856 374.712 168.576 375.131 168.277C375.689 168.597 375.967 169.044 375.967 169.622C375.967 169.96 375.837 170.275 375.579 170.563C375.32 170.852 374.966 171.102 374.518 171.31C374.07 171.52 373.542 171.684 372.934 171.803C372.327 171.923 371.674 171.982 370.977 171.982C369.822 171.982 368.771 171.822 367.825 171.504C366.878 171.186 366.067 170.707 365.389 170.07C364.712 169.433 364.19 168.646 363.822 167.709C363.453 166.773 363.268 165.688 363.268 164.452C363.268 163.258 363.448 162.208 363.806 161.301C364.164 160.395 364.652 159.637 365.271 159.028C365.888 158.422 366.615 157.959 367.452 157.64C368.289 157.321 369.184 157.161 370.14 157.161C371.097 157.161 371.969 157.317 372.756 157.625C373.542 157.934 374.219 158.362 374.787 158.911C375.354 159.457 375.794 160.11 376.101 160.867C376.41 161.624 376.565 162.45 376.565 163.347C376.565 163.845 376.445 164.209 376.206 164.437C375.967 164.666 375.619 164.822 375.162 164.901L366.436 166.155Z" fill="#0D5F9B"/>
<path d="M388.386 160.369C387.837 159.91 387.096 159.682 386.16 159.682C385.463 159.682 384.839 159.771 384.292 159.95C383.744 160.13 383.271 160.329 382.873 160.549V171.514C382.732 171.573 382.54 171.628 382.291 171.678C382.04 171.729 381.767 171.753 381.468 171.753C380.891 171.753 380.462 171.643 380.184 171.423C379.904 171.205 379.765 170.836 379.765 170.319V160.458C379.765 159.999 379.854 159.632 380.034 159.352C380.214 159.074 380.512 158.795 380.931 158.516C381.489 158.177 382.215 157.868 383.112 157.589C384.008 157.31 385.023 157.171 386.16 157.171C388.092 157.171 389.605 157.604 390.701 158.471C391.797 159.337 392.346 160.648 392.346 162.4V171.514C392.205 171.573 392.006 171.628 391.748 171.678C391.489 171.729 391.209 171.753 390.912 171.753C390.332 171.753 389.904 171.643 389.626 171.423C389.346 171.205 389.208 170.836 389.208 170.319V162.52C389.208 161.543 388.933 160.826 388.386 160.369Z" fill="#0D5F9B"/>
<path d="M400.231 168.994C400.65 169.293 401.238 169.443 401.995 169.443C402.333 169.443 402.692 169.392 403.071 169.293C403.449 169.193 403.776 169.073 404.056 168.934C404.195 169.093 404.32 169.273 404.43 169.473C404.539 169.672 404.595 169.911 404.595 170.19C404.595 170.707 404.33 171.137 403.803 171.474C403.274 171.813 402.472 171.982 401.397 171.982C399.903 171.982 398.713 171.649 397.825 170.982C396.94 170.314 396.496 169.213 396.496 167.68V153.725C396.637 153.686 396.836 153.637 397.094 153.577C397.353 153.517 397.633 153.486 397.93 153.486C398.507 153.486 398.931 153.596 399.201 153.814C399.469 154.034 399.604 154.403 399.604 154.92V157.879H404.236C404.315 157.999 404.39 158.167 404.461 158.386C404.53 158.605 404.565 158.835 404.565 159.073C404.565 159.93 404.195 160.359 403.458 160.359H399.604V167.47C399.604 168.187 399.814 168.696 400.231 168.994Z" fill="#0D5F9B"/>
<path d="M413.17 169.561C413.867 169.561 414.474 169.491 414.993 169.352C415.511 169.212 415.88 169.063 416.099 168.902V165.108L412.842 165.438C411.925 165.537 411.238 165.741 410.781 166.049C410.322 166.358 410.092 166.831 410.092 167.468C410.092 168.127 410.341 168.639 410.839 169.007C411.337 169.376 412.115 169.561 413.17 169.561ZM413.11 157.16C414.963 157.16 416.438 157.562 417.533 158.369C418.628 159.176 419.175 160.447 419.175 162.18V169.142C419.175 169.601 419.072 169.954 418.863 170.203C418.653 170.452 418.37 170.686 418.011 170.906C417.492 171.203 416.825 171.462 416.01 171.682C415.191 171.9 414.246 172.01 413.17 172.01C411.238 172.01 409.73 171.632 408.643 170.875C407.557 170.119 407.015 169.003 407.015 167.528C407.015 166.214 407.439 165.209 408.285 164.51C409.132 163.813 410.351 163.385 411.945 163.226L416.099 162.808V162.149C416.099 161.275 415.814 160.637 415.247 160.238C414.679 159.841 413.887 159.64 412.872 159.64C412.075 159.64 411.308 159.75 410.571 159.968C409.834 160.188 409.175 160.437 408.598 160.715C408.4 160.557 408.23 160.363 408.09 160.133C407.951 159.904 407.88 159.65 407.88 159.372C407.88 159.033 407.966 158.754 408.136 158.534C408.304 158.316 408.567 158.127 408.928 157.967C409.484 157.688 410.122 157.484 410.839 157.354C411.556 157.225 412.313 157.16 413.11 157.16Z" fill="#0D5F9B"/>
<path d="M425.09 171.753C424.512 171.753 424.084 171.643 423.804 171.423C423.526 171.205 423.387 170.836 423.387 170.319V152.182C423.526 152.142 423.725 152.092 423.984 152.032C424.244 151.972 424.523 151.942 424.821 151.942C425.398 151.942 425.827 152.052 426.105 152.27C426.385 152.49 426.524 152.859 426.524 153.376V171.514C426.365 171.573 426.16 171.628 425.913 171.678C425.662 171.727 425.388 171.753 425.09 171.753Z" fill="#0D5F9B"/>
<path d="M429.304 169.981C429.304 169.404 429.479 168.926 429.827 168.547C430.176 168.169 430.659 167.98 431.277 167.98C431.914 167.98 432.402 168.169 432.74 168.547C433.079 168.926 433.248 169.404 433.248 169.981C433.248 170.559 433.079 171.037 432.74 171.415C432.402 171.793 431.914 171.982 431.277 171.982C430.659 171.982 430.176 171.793 429.827 171.415C429.479 171.037 429.304 170.559 429.304 169.981Z" fill="#0D5F9B"/>
<path d="M447.382 169.354C448.636 169.354 449.563 169.094 450.16 168.577C450.759 168.059 451.057 167.392 451.057 166.575C451.057 165.858 450.827 165.28 450.37 164.842C449.91 164.404 449.183 164.035 448.189 163.736L445.948 163.049C445.25 162.831 444.618 162.575 444.05 162.287C443.482 161.998 442.999 161.66 442.601 161.271C442.202 160.882 441.898 160.425 441.689 159.896C441.481 159.369 441.376 158.756 441.376 158.059C441.376 156.485 441.958 155.245 443.124 154.339C444.289 153.432 445.867 152.979 447.859 152.979C448.676 152.979 449.432 153.044 450.13 153.173C450.827 153.303 451.431 153.482 451.938 153.71C452.446 153.94 452.845 154.21 453.133 154.517C453.422 154.826 453.567 155.161 453.567 155.519C453.567 155.858 453.482 156.151 453.313 156.4C453.143 156.65 452.94 156.853 452.7 157.013C452.202 156.635 451.55 156.31 450.744 156.041C449.937 155.773 449.046 155.639 448.069 155.639C446.973 155.639 446.128 155.858 445.529 156.295C444.931 156.734 444.634 157.322 444.634 158.059C444.634 158.656 444.842 159.139 445.261 159.508C445.678 159.877 446.365 160.2 447.322 160.48L449.056 160.987C450.729 161.485 452.029 162.167 452.954 163.034C453.88 163.9 454.344 165.081 454.344 166.575C454.344 167.372 454.189 168.103 453.88 168.771C453.572 169.438 453.128 170.011 452.551 170.489C451.974 170.968 451.251 171.337 450.385 171.595C449.518 171.853 448.536 171.983 447.442 171.983C446.525 171.983 445.688 171.902 444.931 171.744C444.174 171.584 443.523 171.375 442.975 171.117C442.426 170.858 442.003 170.559 441.704 170.221C441.405 169.881 441.256 169.523 441.256 169.144C441.256 168.746 441.376 168.407 441.615 168.129C441.853 167.849 442.133 167.64 442.451 167.501C442.93 167.94 443.581 168.358 444.409 168.756C445.235 169.154 446.226 169.354 447.382 169.354Z" fill="#0D5F9B"/>
<path d="M464.114 159.673C462.919 159.673 461.973 160.1 461.276 160.957C460.577 161.814 460.23 163.018 460.23 164.573C460.23 166.127 460.568 167.327 461.246 168.172C461.923 169.02 462.878 169.443 464.114 169.443C465.349 169.443 466.306 169.02 466.983 168.172C467.659 167.327 467.999 166.127 467.999 164.573C467.999 163.039 467.654 161.838 466.967 160.973C466.28 160.106 465.329 159.673 464.114 159.673ZM471.197 164.573C471.197 165.709 471.027 166.734 470.687 167.65C470.35 168.567 469.876 169.343 469.268 169.981C468.662 170.618 467.919 171.112 467.043 171.459C466.165 171.808 465.191 171.983 464.114 171.983C463.038 171.983 462.064 171.808 461.186 171.459C460.31 171.112 459.567 170.618 458.96 169.981C458.351 169.343 457.879 168.567 457.542 167.65C457.202 166.734 457.032 165.709 457.032 164.573C457.032 163.437 457.202 162.412 457.542 161.495C457.879 160.579 458.356 159.803 458.976 159.164C459.593 158.527 460.34 158.034 461.216 157.684C462.092 157.337 463.058 157.162 464.114 157.162C465.169 157.162 466.136 157.337 467.013 157.684C467.889 158.034 468.636 158.531 469.253 159.179C469.871 159.827 470.35 160.604 470.687 161.509C471.027 162.416 471.197 163.437 471.197 164.573Z" fill="#0D5F9B"/>
<path d="M481.444 159.702C480.807 159.702 480.219 159.806 479.682 160.015C479.143 160.225 478.681 160.539 478.291 160.956C477.904 161.375 477.594 161.889 477.367 162.496C477.137 163.103 477.022 163.805 477.022 164.602C477.022 166.175 477.429 167.377 478.246 168.202C479.064 169.03 480.13 169.443 481.444 169.443C482.201 169.443 482.849 169.344 483.386 169.144C483.924 168.945 484.393 168.706 484.791 168.427C485.049 168.586 485.258 168.775 485.418 168.994C485.578 169.213 485.658 169.483 485.658 169.801C485.658 170.42 485.253 170.937 484.448 171.355C483.64 171.774 482.581 171.982 481.264 171.982C480.17 171.982 479.168 171.834 478.262 171.535C477.355 171.235 476.575 170.778 475.917 170.16C475.258 169.543 474.746 168.772 474.378 167.844C474.009 166.917 473.824 165.838 473.824 164.602C473.824 163.367 474.02 162.282 474.408 161.345C474.796 160.41 475.323 159.632 475.99 159.015C476.658 158.399 477.441 157.934 478.336 157.625C479.234 157.317 480.18 157.162 481.176 157.162C481.834 157.162 482.426 157.222 482.953 157.341C483.481 157.461 483.934 157.625 484.312 157.834C484.691 158.044 484.985 158.282 485.195 158.552C485.404 158.821 485.509 159.103 485.509 159.404C485.509 159.682 485.433 159.937 485.284 160.165C485.135 160.395 484.951 160.568 484.731 160.687C484.312 160.429 483.85 160.2 483.342 160C482.833 159.802 482.201 159.702 481.444 159.702Z" fill="#0D5F9B"/>
<path d="M492.204 171.514C492.065 171.574 491.869 171.629 491.622 171.679C491.373 171.729 491.088 171.753 490.77 171.753C490.191 171.753 489.764 171.644 489.485 171.425C489.206 171.206 489.066 170.837 489.066 170.319V157.679C489.226 157.64 489.429 157.59 489.678 157.53C489.928 157.471 490.211 157.44 490.53 157.44C491.108 157.44 491.532 157.55 491.802 157.769C492.07 157.988 492.204 158.366 492.204 158.905V171.514ZM488.738 153.288C488.738 152.769 488.917 152.335 489.276 151.988C489.633 151.639 490.093 151.464 490.65 151.464C491.208 151.464 491.655 151.639 491.995 151.988C492.334 152.335 492.503 152.769 492.503 153.288C492.503 153.806 492.334 154.239 491.995 154.586C491.655 154.936 491.208 155.11 490.65 155.11C490.093 155.11 489.633 154.936 489.276 154.586C488.917 154.239 488.738 153.806 488.738 153.288Z" fill="#0D5F9B"/>
<path d="M501.735 169.561C502.432 169.561 503.039 169.491 503.559 169.352C504.076 169.212 504.445 169.063 504.665 168.902V165.108L501.407 165.438C500.49 165.537 499.803 165.741 499.346 166.049C498.887 166.358 498.658 166.831 498.658 167.468C498.658 168.127 498.907 168.639 499.405 169.007C499.903 169.376 500.68 169.561 501.735 169.561ZM501.675 157.16C503.528 157.16 505.003 157.562 506.099 158.369C507.193 159.176 507.741 160.447 507.741 162.18V169.142C507.741 169.601 507.637 169.954 507.428 170.203C507.219 170.452 506.935 170.686 506.576 170.906C506.058 171.203 505.39 171.462 504.575 171.682C503.757 171.9 502.812 172.01 501.735 172.01C499.803 172.01 498.295 171.632 497.208 170.875C496.123 170.119 495.58 169.003 495.58 167.528C495.58 166.214 496.004 165.209 496.851 164.51C497.697 163.813 498.917 163.385 500.511 163.226L504.665 162.808V162.149C504.665 161.275 504.38 160.637 503.813 160.238C503.245 159.841 502.453 159.64 501.438 159.64C500.641 159.64 499.873 159.75 499.137 159.968C498.4 160.188 497.741 160.437 497.164 160.715C496.966 160.557 496.796 160.363 496.655 160.133C496.516 159.904 496.446 159.65 496.446 159.372C496.446 159.033 496.531 158.754 496.701 158.534C496.87 158.316 497.133 158.127 497.493 157.967C498.05 157.688 498.687 157.484 499.405 157.354C500.121 157.225 500.878 157.16 501.675 157.16Z" fill="#0D5F9B"/>
<path d="M513.656 171.753C513.077 171.753 512.649 171.643 512.37 171.423C512.091 171.205 511.952 170.836 511.952 170.319V152.182C512.091 152.142 512.291 152.092 512.55 152.032C512.809 151.972 513.089 151.942 513.386 151.942C513.963 151.942 514.392 152.052 514.671 152.27C514.951 152.49 515.09 152.859 515.09 153.376V171.514C514.93 171.573 514.726 171.628 514.478 171.678C514.228 171.727 513.953 171.753 513.656 171.753Z" fill="#0D5F9B"/>
<path d="M517.869 169.981C517.869 169.404 518.044 168.926 518.393 168.547C518.741 168.169 519.224 167.98 519.842 167.98C520.479 167.98 520.967 168.169 521.306 168.547C521.644 168.926 521.814 169.404 521.814 169.981C521.814 170.559 521.644 171.037 521.306 171.415C520.967 171.793 520.479 171.982 519.842 171.982C519.224 171.982 518.741 171.793 518.393 171.415C518.044 171.037 517.869 170.559 517.869 169.981Z" fill="#0D5F9B"/>
<path d="M545.714 169.263C545.714 169.681 545.609 170.026 545.401 170.295C545.192 170.563 544.867 170.807 544.429 171.027C543.911 171.306 543.193 171.534 542.279 171.714C541.362 171.894 540.424 171.982 539.468 171.982C538.054 171.982 536.754 171.798 535.569 171.429C534.384 171.061 533.363 170.488 532.506 169.711C531.649 168.934 530.984 167.949 530.505 166.753C530.027 165.559 529.787 164.144 529.787 162.51C529.787 160.917 530.037 159.522 530.534 158.327C531.032 157.132 531.704 156.142 532.551 155.353C533.397 154.566 534.395 153.974 535.54 153.577C536.685 153.177 537.905 152.978 539.2 152.978C540.055 152.978 540.845 153.053 541.561 153.202C542.279 153.352 542.895 153.546 543.413 153.785C543.931 154.024 544.33 154.298 544.609 154.606C544.888 154.916 545.027 155.241 545.027 155.578C545.027 155.917 544.937 156.21 544.757 156.46C544.579 156.709 544.359 156.903 544.1 157.042C543.562 156.704 542.925 156.385 542.188 156.086C541.451 155.787 540.525 155.638 539.409 155.638C538.513 155.638 537.676 155.787 536.9 156.086C536.122 156.385 535.451 156.824 534.882 157.401C534.314 157.978 533.871 158.696 533.553 159.553C533.234 160.409 533.075 161.396 533.075 162.51C533.075 163.687 533.239 164.707 533.567 165.573C533.896 166.44 534.345 167.152 534.912 167.709C535.48 168.267 536.157 168.681 536.945 168.949C537.73 169.219 538.582 169.353 539.499 169.353C540.136 169.353 540.735 169.298 541.292 169.188C541.85 169.079 542.279 168.945 542.576 168.786V164.005H538.453C538.353 163.885 538.269 163.71 538.199 163.482C538.13 163.252 538.094 163.017 538.094 162.78C538.094 162.32 538.199 161.983 538.408 161.763C538.616 161.544 538.901 161.434 539.26 161.434H544.28C544.697 161.434 545.042 161.559 545.312 161.808C545.58 162.057 545.714 162.411 545.714 162.868V169.263Z" fill="#0D5F9B"/>
<path d="M556.117 159.673C554.922 159.673 553.976 160.1 553.279 160.957C552.58 161.814 552.233 163.018 552.233 164.573C552.233 166.127 552.571 167.327 553.249 168.172C553.926 169.02 554.881 169.443 556.117 169.443C557.352 169.443 558.309 169.02 558.985 168.172C559.662 167.327 560.002 166.127 560.002 164.573C560.002 163.039 559.657 161.838 558.97 160.973C558.283 160.106 557.332 159.673 556.117 159.673ZM563.2 164.573C563.2 165.709 563.03 166.734 562.69 167.65C562.353 168.567 561.879 169.343 561.271 169.981C560.665 170.618 559.922 171.112 559.046 171.459C558.168 171.808 557.194 171.983 556.117 171.983C555.041 171.983 554.067 171.808 553.189 171.459C552.313 171.112 551.57 170.618 550.963 169.981C550.354 169.343 549.882 168.567 549.545 167.65C549.205 166.734 549.035 165.709 549.035 164.573C549.035 163.437 549.205 162.412 549.545 161.495C549.882 160.579 550.359 159.803 550.979 159.164C551.596 158.527 552.343 158.034 553.219 157.684C554.095 157.337 555.061 157.162 556.117 157.162C557.172 157.162 558.139 157.337 559.016 157.684C559.892 158.034 560.639 158.531 561.256 159.179C561.874 159.827 562.353 160.604 562.69 161.509C563.03 162.416 563.2 163.437 563.2 164.573Z" fill="#0D5F9B"/>
<path d="M576.851 157.289C577.289 157.289 577.648 157.394 577.927 157.602C578.206 157.811 578.345 158.146 578.345 158.603C578.345 158.843 578.269 159.245 578.121 159.814C577.972 160.382 577.768 161.043 577.508 161.801C577.249 162.558 576.961 163.375 576.643 164.251C576.323 165.128 575.984 165.998 575.626 166.865C575.267 167.732 574.914 168.558 574.565 169.345C574.216 170.133 573.893 170.805 573.594 171.363C573.433 171.462 573.196 171.557 572.877 171.646C572.559 171.736 572.199 171.781 571.801 171.781C570.825 171.781 570.187 171.512 569.889 170.974C569.61 170.476 569.241 169.695 568.784 168.629C568.324 167.564 567.857 166.398 567.379 165.132C566.9 163.867 566.438 162.602 565.99 161.337C565.542 160.073 565.187 158.982 564.929 158.065C565.109 157.847 565.346 157.662 565.646 157.512C565.945 157.364 566.263 157.289 566.603 157.289C567.06 157.289 567.424 157.394 567.692 157.602C567.962 157.811 568.175 158.175 568.334 158.694L569.978 163.832C570.098 164.211 570.237 164.629 570.397 165.087C570.555 165.546 570.715 166.009 570.874 166.477C571.034 166.946 571.192 167.394 571.352 167.822C571.512 168.251 571.642 168.613 571.741 168.912H571.891C572.568 167.04 573.215 165.153 573.833 163.25C574.45 161.348 574.988 159.47 575.446 157.617C575.824 157.399 576.293 157.289 576.851 157.289Z" fill="#0D5F9B"/>
<path d="M587.31 159.582C586.216 159.582 585.304 159.951 584.576 160.687C583.85 161.424 583.465 162.481 583.426 163.855L590.777 162.809C590.697 161.913 590.369 161.152 589.79 160.523C589.212 159.895 588.387 159.582 587.31 159.582ZM583.606 166.155C583.884 167.292 584.427 168.133 585.234 168.681C586.041 169.229 587.071 169.503 588.327 169.503C589.163 169.503 589.931 169.373 590.628 169.114C591.325 168.856 591.882 168.576 592.301 168.277C592.859 168.597 593.137 169.044 593.137 169.622C593.137 169.96 593.007 170.275 592.749 170.563C592.49 170.852 592.136 171.102 591.688 171.31C591.24 171.52 590.712 171.684 590.104 171.803C589.497 171.923 588.844 171.982 588.147 171.982C586.992 171.982 585.941 171.822 584.995 171.504C584.048 171.186 583.237 170.707 582.559 170.07C581.882 169.433 581.359 168.646 580.992 167.709C580.623 166.773 580.438 165.688 580.438 164.452C580.438 163.258 580.618 162.208 580.976 161.301C581.334 160.395 581.822 159.637 582.441 159.028C583.058 158.422 583.785 157.959 584.622 157.64C585.459 157.321 586.354 157.161 587.31 157.161C588.267 157.161 589.139 157.317 589.926 157.625C590.712 157.934 591.389 158.362 591.957 158.911C592.524 159.457 592.964 160.11 593.271 160.867C593.58 161.624 593.735 162.45 593.735 163.347C593.735 163.845 593.615 164.209 593.376 164.437C593.137 164.666 592.789 164.822 592.331 164.901L583.606 166.155Z" fill="#0D5F9B"/>
<path d="M600.038 171.514C599.899 171.574 599.705 171.629 599.456 171.679C599.207 171.729 598.933 171.753 598.633 171.753C598.056 171.753 597.627 171.644 597.35 171.425C597.07 171.206 596.93 170.837 596.93 170.319V160.519C596.93 160.02 597.031 159.618 597.23 159.307C597.428 159 597.747 158.706 598.186 158.426C598.763 158.069 599.5 157.769 600.397 157.53C601.293 157.291 602.279 157.172 603.356 157.172C605.108 157.172 605.984 157.669 605.984 158.665C605.984 158.905 605.944 159.129 605.865 159.338C605.786 159.547 605.696 159.731 605.597 159.89C605.396 159.851 605.147 159.812 604.85 159.772C604.55 159.731 604.232 159.712 603.893 159.712C603.096 159.712 602.368 159.796 601.712 159.965C601.054 160.135 600.495 160.349 600.038 160.607V171.514Z" fill="#0D5F9B"/>
<path d="M617.027 160.369C616.478 159.91 615.737 159.682 614.801 159.682C614.104 159.682 613.481 159.771 612.933 159.95C612.385 160.13 611.913 160.329 611.514 160.549V171.514C611.374 171.573 611.181 171.628 610.932 171.678C610.682 171.729 610.409 171.753 610.11 171.753C609.533 171.753 609.103 171.643 608.825 171.423C608.545 171.205 608.406 170.836 608.406 170.319V160.458C608.406 159.999 608.496 159.632 608.676 159.352C608.856 159.074 609.153 158.795 609.572 158.516C610.13 158.177 610.857 157.868 611.753 157.589C612.65 157.31 613.665 157.171 614.801 157.171C616.734 157.171 618.247 157.604 619.342 158.471C620.438 159.337 620.987 160.648 620.987 162.4V171.514C620.847 171.573 620.648 171.628 620.39 171.678C620.13 171.729 619.851 171.753 619.553 171.753C618.973 171.753 618.546 171.643 618.267 171.423C617.988 171.205 617.85 170.836 617.85 170.319V162.52C617.85 161.543 617.575 160.826 617.027 160.369Z" fill="#0D5F9B"/>
<path d="M630.364 169.561C631.061 169.561 631.668 169.491 632.188 169.352C632.705 169.212 633.074 169.063 633.294 168.902V165.108L630.036 165.438C629.119 165.537 628.432 165.741 627.975 166.049C627.516 166.358 627.287 166.831 627.287 167.468C627.287 168.127 627.536 168.639 628.034 169.007C628.532 169.376 629.309 169.561 630.364 169.561ZM630.304 157.16C632.157 157.16 633.632 157.562 634.728 158.369C635.822 159.176 636.37 160.447 636.37 162.18V169.142C636.37 169.601 636.266 169.954 636.057 170.203C635.848 170.452 635.564 170.686 635.205 170.906C634.687 171.203 634.019 171.462 633.204 171.682C632.386 171.9 631.441 172.01 630.364 172.01C628.432 172.01 626.924 171.632 625.837 170.875C624.752 170.119 624.209 169.003 624.209 167.528C624.209 166.214 624.633 165.209 625.48 164.51C626.326 163.813 627.546 163.385 629.139 163.226L633.294 162.808V162.149C633.294 161.275 633.009 160.637 632.442 160.238C631.874 159.841 631.082 159.64 630.067 159.64C629.27 159.64 628.502 159.75 627.765 159.968C627.029 160.188 626.37 160.437 625.792 160.715C625.595 160.557 625.425 160.363 625.284 160.133C625.145 159.904 625.075 159.65 625.075 159.372C625.075 159.033 625.16 158.754 625.33 158.534C625.499 158.316 625.762 158.127 626.122 157.967C626.679 157.688 627.316 157.484 628.034 157.354C628.75 157.225 629.507 157.16 630.304 157.16Z" fill="#0D5F9B"/>
<path d="M648.999 160.369C648.45 159.91 647.709 159.682 646.773 159.682C646.076 159.682 645.453 159.771 644.905 159.95C644.357 160.13 643.885 160.329 643.486 160.549V171.514C643.346 171.573 643.153 171.628 642.904 171.678C642.654 171.729 642.38 171.753 642.081 171.753C641.504 171.753 641.075 171.643 640.797 171.423C640.517 171.205 640.378 170.836 640.378 170.319V160.458C640.378 159.999 640.467 159.632 640.647 159.352C640.827 159.074 641.125 158.795 641.544 158.516C642.102 158.177 642.828 157.868 643.725 157.589C644.621 157.31 645.637 157.171 646.773 157.171C648.705 157.171 650.218 157.604 651.314 158.471C652.41 159.337 652.959 160.648 652.959 162.4V171.514C652.818 171.573 652.619 171.628 652.361 171.678C652.102 171.729 651.822 171.753 651.525 171.753C650.945 171.753 650.517 171.643 650.239 171.423C649.959 171.205 649.821 170.836 649.821 170.319V162.52C649.821 161.543 649.547 160.826 648.999 160.369Z" fill="#0D5F9B"/>
<path d="M663.954 159.702C663.317 159.702 662.729 159.806 662.192 160.015C661.653 160.225 661.19 160.539 660.801 160.956C660.414 161.375 660.104 161.889 659.876 162.496C659.647 163.103 659.532 163.805 659.532 164.602C659.532 166.175 659.939 167.377 660.756 168.202C661.573 169.03 662.64 169.443 663.954 169.443C664.711 169.443 665.358 169.344 665.896 169.144C666.434 168.945 666.902 168.706 667.301 168.427C667.559 168.586 667.768 168.775 667.928 168.994C668.087 169.213 668.168 169.483 668.168 169.801C668.168 170.42 667.763 170.937 666.957 171.355C666.15 171.774 665.09 171.982 663.774 171.982C662.679 171.982 661.678 171.834 660.772 171.535C659.865 171.235 659.085 170.778 658.427 170.16C657.768 169.543 657.256 168.772 656.888 167.844C656.519 166.917 656.334 165.838 656.334 164.602C656.334 163.367 656.529 162.282 656.918 161.345C657.306 160.41 657.833 159.632 658.5 159.015C659.168 158.399 659.95 157.934 660.846 157.625C661.743 157.317 662.69 157.162 663.686 157.162C664.343 157.162 664.936 157.222 665.463 157.341C665.991 157.461 666.444 157.625 666.822 157.834C667.201 158.044 667.495 158.282 667.704 158.552C667.914 158.821 668.018 159.103 668.018 159.404C668.018 159.682 667.943 159.937 667.794 160.165C667.644 160.395 667.46 160.568 667.241 160.687C666.822 160.429 666.36 160.2 665.851 160C665.343 159.802 664.711 159.702 663.954 159.702Z" fill="#0D5F9B"/>
<path d="M677.192 159.582C676.098 159.582 675.186 159.951 674.458 160.687C673.731 161.424 673.347 162.481 673.308 163.855L680.659 162.809C680.579 161.913 680.251 161.152 679.672 160.523C679.094 159.895 678.269 159.582 677.192 159.582ZM673.488 166.155C673.766 167.292 674.309 168.133 675.116 168.681C675.923 169.229 676.953 169.503 678.209 169.503C679.045 169.503 679.813 169.373 680.51 169.114C681.207 168.856 681.764 168.576 682.183 168.277C682.741 168.597 683.019 169.044 683.019 169.622C683.019 169.96 682.889 170.275 682.631 170.563C682.372 170.852 682.018 171.102 681.57 171.31C681.121 171.52 680.594 171.684 679.986 171.803C679.378 171.923 678.726 171.982 678.029 171.982C676.874 171.982 675.823 171.822 674.877 171.504C673.929 171.186 673.119 170.707 672.44 170.07C671.764 169.433 671.241 168.646 670.874 167.709C670.505 166.773 670.319 165.688 670.319 164.452C670.319 163.258 670.499 162.208 670.858 161.301C671.216 160.395 671.704 159.637 672.323 159.028C672.94 158.422 673.666 157.959 674.504 157.64C675.34 157.321 676.236 157.161 677.192 157.161C678.149 157.161 679.021 157.317 679.807 157.625C680.594 157.934 681.271 158.362 681.839 158.911C682.406 159.457 682.845 160.11 683.153 160.867C683.462 161.624 683.617 162.45 683.617 163.347C683.617 163.845 683.497 164.209 683.258 164.437C683.019 164.666 682.67 164.822 682.213 164.901L673.488 166.155Z" fill="#0D5F9B"/>
<path d="M252.509 190.962C252.509 189.787 252.339 188.775 252.001 187.929C251.662 187.082 251.194 186.39 250.596 185.852C250 185.315 249.301 184.916 248.504 184.657C247.708 184.398 246.851 184.269 245.935 184.269C244.879 184.269 244.003 184.338 243.306 184.478V197.654C243.704 197.754 244.147 197.819 244.635 197.85C245.123 197.879 245.617 197.894 246.115 197.894C248.186 197.894 249.77 197.312 250.866 196.146C251.961 194.98 252.509 193.252 252.509 190.962ZM255.796 190.932C255.796 192.545 255.567 193.955 255.109 195.16C254.651 196.365 253.998 197.367 253.151 198.164C252.305 198.961 251.284 199.553 250.088 199.94C248.893 200.33 247.568 200.524 246.115 200.524C245.477 200.524 244.73 200.494 243.874 200.434C243.017 200.374 242.219 200.225 241.483 199.985C240.567 199.687 240.109 199.148 240.109 198.372V183.402C240.109 183.063 240.203 182.799 240.393 182.61C240.582 182.421 240.845 182.277 241.185 182.177C241.882 181.957 242.638 181.813 243.455 181.743C244.271 181.674 245.069 181.638 245.846 181.638C247.319 181.638 248.669 181.829 249.895 182.208C251.12 182.584 252.169 183.163 253.047 183.939C253.923 184.716 254.601 185.688 255.078 186.853C255.557 188.018 255.796 189.378 255.796 190.932Z" fill="#0D5F9B"/>
<path d="M264.579 198.163C265.276 198.163 265.883 198.093 266.401 197.954C266.92 197.815 267.287 197.665 267.507 197.504V193.71L264.251 194.04C263.334 194.139 262.647 194.344 262.188 194.652C261.73 194.961 261.501 195.433 261.501 196.07C261.501 196.729 261.75 197.241 262.248 197.609C262.745 197.978 263.523 198.163 264.579 198.163ZM264.519 185.762C266.372 185.762 267.846 186.165 268.941 186.972C270.037 187.779 270.585 189.049 270.585 190.782V197.744C270.585 198.203 270.48 198.557 270.272 198.806C270.061 199.055 269.778 199.288 269.42 199.508C268.902 199.805 268.234 200.065 267.418 200.284C266.6 200.503 265.654 200.613 264.579 200.613C262.647 200.613 261.137 200.235 260.052 199.477C258.965 198.721 258.424 197.605 258.424 196.13C258.424 194.816 258.847 193.811 259.693 193.113C260.54 192.416 261.759 191.988 263.354 191.828L267.507 191.411V190.752C267.507 189.877 267.224 189.24 266.655 188.84C266.088 188.443 265.297 188.242 264.28 188.242C263.483 188.242 262.716 188.352 261.979 188.571C261.242 188.79 260.585 189.039 260.007 189.318C259.808 189.159 259.638 188.965 259.499 188.735C259.36 188.507 259.29 188.253 259.29 187.974C259.29 187.636 259.374 187.356 259.544 187.136C259.712 186.918 259.977 186.729 260.335 186.569C260.894 186.29 261.531 186.087 262.248 185.957C262.965 185.828 263.722 185.762 264.519 185.762Z" fill="#0D5F9B"/>
<path d="M278.353 197.592C278.772 197.891 279.36 198.042 280.116 198.042C280.455 198.042 280.813 197.991 281.192 197.891C281.57 197.791 281.898 197.671 282.178 197.532C282.317 197.692 282.442 197.872 282.552 198.071C282.661 198.27 282.716 198.509 282.716 198.789C282.716 199.306 282.451 199.735 281.924 200.072C281.395 200.412 280.594 200.58 279.519 200.58C278.025 200.58 276.834 200.247 275.948 199.58C275.061 198.913 274.618 197.812 274.618 196.278V182.323C274.757 182.285 274.957 182.235 275.216 182.175C275.475 182.115 275.753 182.084 276.052 182.084C276.629 182.084 277.053 182.194 277.322 182.413C277.591 182.632 277.725 183.001 277.725 183.518V186.477H282.357C282.436 186.597 282.511 186.766 282.582 186.984C282.65 187.204 282.686 187.434 282.686 187.671C282.686 188.528 282.317 188.957 281.58 188.957H277.725V196.069C277.725 196.785 277.935 197.295 278.353 197.592Z" fill="#0D5F9B"/>
<path d="M291.292 198.163C291.989 198.163 292.596 198.093 293.114 197.954C293.633 197.815 294 197.665 294.22 197.504V193.71L290.964 194.04C290.047 194.139 289.36 194.344 288.901 194.652C288.443 194.961 288.214 195.433 288.214 196.07C288.214 196.729 288.463 197.241 288.961 197.609C289.458 197.978 290.236 198.163 291.292 198.163ZM291.232 185.762C293.085 185.762 294.558 186.165 295.654 186.972C296.75 187.779 297.298 189.049 297.298 190.782V197.744C297.298 198.203 297.193 198.557 296.985 198.806C296.774 199.055 296.49 199.288 296.133 199.508C295.614 199.805 294.947 200.065 294.131 200.284C293.313 200.503 292.367 200.613 291.292 200.613C289.36 200.613 287.85 200.235 286.765 199.477C285.678 198.721 285.137 197.605 285.137 196.13C285.137 194.816 285.559 193.811 286.406 193.113C287.253 192.416 288.472 191.988 290.067 191.828L294.22 191.411V190.752C294.22 189.877 293.937 189.24 293.368 188.84C292.801 188.443 292.01 188.242 290.993 188.242C290.196 188.242 289.429 188.352 288.692 188.571C287.955 188.79 287.297 189.039 286.72 189.318C286.521 189.159 286.351 188.965 286.212 188.735C286.073 188.507 286.003 188.253 286.003 187.974C286.003 187.636 286.087 187.356 286.257 187.136C286.425 186.918 286.69 186.729 287.048 186.569C287.606 186.29 288.244 186.087 288.961 185.957C289.678 185.828 290.435 185.762 291.232 185.762Z" fill="#0D5F9B"/>
<path d="M313.643 198.072C314.221 198.072 314.854 197.967 315.541 197.758C316.228 197.548 316.881 197.155 317.499 196.578L312.209 191.11C311.531 191.329 310.939 191.721 310.43 192.29C309.923 192.858 309.669 193.6 309.669 194.516C309.669 195.592 310.018 196.453 310.715 197.1C311.411 197.748 312.388 198.072 313.643 198.072ZM322.1 200.581C321.82 200.581 321.566 200.511 321.337 200.373C321.109 200.233 320.864 200.033 320.606 199.775L319.35 198.49C318.634 199.188 317.786 199.715 316.81 200.073C315.835 200.433 314.749 200.611 313.554 200.611C312.477 200.611 311.512 200.466 310.655 200.178C309.798 199.89 309.072 199.482 308.474 198.953C307.876 198.426 307.413 197.792 307.085 197.055C306.755 196.319 306.592 195.501 306.592 194.605C306.592 193.191 306.96 192.032 307.696 191.125C308.433 190.218 309.36 189.556 310.476 189.138C309.958 188.539 309.604 187.977 309.415 187.45C309.226 186.923 309.132 186.368 309.132 185.791C309.132 184.556 309.56 183.545 310.416 182.758C311.273 181.972 312.498 181.577 314.092 181.577C315.206 181.577 316.034 181.752 316.572 182.101C317.109 182.449 317.379 182.882 317.379 183.401C317.379 183.66 317.313 183.899 317.184 184.117C317.054 184.337 316.9 184.527 316.721 184.685C316.422 184.527 316.079 184.397 315.69 184.297C315.301 184.197 314.899 184.148 314.48 184.148C313.783 184.148 313.23 184.312 312.821 184.639C312.414 184.969 312.209 185.423 312.209 186.001C312.209 186.538 312.354 187.016 312.642 187.435C312.931 187.852 313.353 188.351 313.912 188.929L319.051 194.187C319.271 193.55 319.445 192.829 319.575 192.022C319.704 191.214 319.769 190.342 319.769 189.406C320.247 189.188 320.695 189.078 321.114 189.078C321.671 189.078 322.064 189.238 322.294 189.556C322.522 189.875 322.637 190.303 322.637 190.84C322.637 191.757 322.512 192.698 322.263 193.665C322.014 194.632 321.66 195.522 321.203 196.339L323.743 198.939C323.683 199.436 323.508 199.834 323.221 200.133C322.931 200.433 322.557 200.581 322.1 200.581Z" fill="#0D5F9B"/>
<path d="M338.148 197.951C339.403 197.951 340.329 197.692 340.927 197.175C341.525 196.656 341.823 195.99 341.823 195.172C341.823 194.456 341.595 193.877 341.136 193.439C340.678 193.001 339.951 192.632 338.955 192.333L336.714 191.646C336.017 191.428 335.384 191.173 334.817 190.884C334.248 190.595 333.766 190.257 333.367 189.869C332.969 189.479 332.665 189.022 332.455 188.494C332.246 187.966 332.142 187.353 332.142 186.656C332.142 185.083 332.725 183.843 333.891 182.936C335.055 182.029 336.634 181.576 338.627 181.576C339.443 181.576 340.199 181.641 340.898 181.77C341.595 181.9 342.196 182.079 342.705 182.308C343.213 182.538 343.611 182.807 343.9 183.115C344.188 183.424 344.334 183.758 344.334 184.116C344.334 184.456 344.248 184.748 344.08 184.997C343.91 185.247 343.706 185.45 343.467 185.61C342.969 185.232 342.316 184.908 341.509 184.638C340.702 184.37 339.811 184.236 338.835 184.236C337.74 184.236 336.893 184.456 336.295 184.892C335.698 185.332 335.399 185.919 335.399 186.656C335.399 187.254 335.608 187.736 336.027 188.105C336.445 188.474 337.133 188.797 338.088 189.077L339.822 189.584C341.495 190.082 342.795 190.764 343.721 191.631C344.647 192.497 345.11 193.678 345.11 195.172C345.11 195.969 344.956 196.701 344.647 197.369C344.338 198.035 343.895 198.609 343.317 199.086C342.739 199.565 342.018 199.934 341.152 200.192C340.285 200.45 339.303 200.58 338.208 200.58C337.291 200.58 336.455 200.5 335.698 200.342C334.94 200.182 334.289 199.972 333.741 199.715C333.192 199.455 332.77 199.156 332.471 198.818C332.172 198.478 332.022 198.121 332.022 197.742C332.022 197.343 332.142 197.005 332.381 196.726C332.62 196.447 332.9 196.237 333.218 196.098C333.697 196.537 334.348 196.955 335.175 197.353C336.002 197.752 336.993 197.951 338.148 197.951Z" fill="#0D5F9B"/>
<path d="M354.879 188.27C353.684 188.27 352.739 188.698 352.04 189.555C351.342 190.412 350.995 191.616 350.995 193.17C350.995 194.724 351.333 195.924 352.011 196.77C352.689 197.618 353.644 198.04 354.879 198.04C356.114 198.04 357.071 197.618 357.747 196.77C358.425 195.924 358.765 194.724 358.765 193.17C358.765 191.636 358.42 190.436 357.732 189.57C357.046 188.703 356.093 188.27 354.879 188.27ZM361.962 193.17C361.962 194.306 361.792 195.332 361.453 196.247C361.114 197.164 360.641 197.941 360.034 198.578C359.426 199.215 358.684 199.709 357.807 200.057C356.931 200.405 355.957 200.58 354.879 200.58C353.804 200.58 352.829 200.405 351.951 200.057C351.075 199.709 350.331 199.215 349.725 198.578C349.117 197.941 348.644 197.164 348.306 196.247C347.966 195.332 347.798 194.306 347.798 193.17C347.798 192.035 347.966 191.009 348.306 190.092C348.644 189.177 349.122 188.4 349.74 187.762C350.357 187.125 351.105 186.632 351.98 186.282C352.856 185.934 353.824 185.76 354.879 185.76C355.934 185.76 356.902 185.934 357.778 186.282C358.655 186.632 359.401 187.128 360.019 187.776C360.635 188.425 361.114 189.201 361.453 190.106C361.792 191.013 361.962 192.035 361.962 193.17Z" fill="#0D5F9B"/>
<path d="M367.246 200.348C366.668 200.348 366.24 200.238 365.961 200.018C365.682 199.8 365.543 199.431 365.543 198.914V180.776C365.682 180.737 365.881 180.687 366.141 180.627C366.4 180.567 366.679 180.536 366.977 180.536C367.554 180.536 367.983 180.646 368.262 180.865C368.541 181.084 368.681 181.453 368.681 181.97V200.109C368.521 200.168 368.317 200.223 368.069 200.272C367.819 200.322 367.544 200.348 367.246 200.348Z" fill="#0D5F9B"/>
<path d="M372.982 186.208C373.122 186.169 373.322 186.125 373.581 186.075C373.839 186.024 374.119 186 374.416 186C374.995 186 375.418 186.109 375.687 186.328C375.955 186.547 376.091 186.925 376.091 187.463V194.844C376.091 196 376.395 196.822 377.001 197.309C377.609 197.796 378.451 198.042 379.527 198.042C380.224 198.042 380.812 197.971 381.289 197.832C381.768 197.692 382.146 197.544 382.426 197.384V186.208C382.585 186.169 382.788 186.125 383.037 186.075C383.287 186.024 383.56 186 383.86 186C384.437 186 384.865 186.109 385.143 186.328C385.423 186.547 385.563 186.925 385.563 187.463V197.532C385.563 197.971 385.493 198.33 385.354 198.609C385.213 198.888 384.935 199.158 384.516 199.416C383.999 199.715 383.317 199.983 382.471 200.223C381.624 200.462 380.632 200.58 379.498 200.58C377.444 200.58 375.845 200.127 374.701 199.22C373.555 198.315 372.982 196.876 372.982 194.904V186.208Z" fill="#0D5F9B"/>
<path d="M393.454 197.592C393.873 197.891 394.46 198.042 395.217 198.042C395.556 198.042 395.915 197.991 396.294 197.891C396.672 197.791 396.999 197.671 397.279 197.532C397.418 197.692 397.543 197.872 397.653 198.071C397.761 198.27 397.817 198.509 397.817 198.789C397.817 199.306 397.553 199.735 397.026 200.072C396.497 200.412 395.695 200.58 394.62 200.58C393.126 200.58 391.936 200.247 391.048 199.58C390.163 198.913 389.719 197.812 389.719 196.278V182.323C389.859 182.285 390.058 182.235 390.316 182.175C390.576 182.115 390.855 182.084 391.153 182.084C391.73 182.084 392.154 182.194 392.423 182.413C392.692 182.632 392.827 183.001 392.827 183.518V186.477H397.459C397.538 186.597 397.613 186.766 397.683 186.984C397.752 187.204 397.788 187.434 397.788 187.671C397.788 188.528 397.418 188.957 396.681 188.957H392.827V196.069C392.827 196.785 393.036 197.295 393.454 197.592Z" fill="#0D5F9B"/>
<path d="M404.271 200.106C404.132 200.166 403.937 200.221 403.689 200.271C403.44 200.32 403.155 200.345 402.837 200.345C402.259 200.345 401.831 200.236 401.553 200.017C401.273 199.798 401.134 199.429 401.134 198.911V186.271C401.293 186.231 401.497 186.182 401.746 186.122C401.996 186.063 402.278 186.032 402.597 186.032C403.176 186.032 403.6 186.142 403.869 186.36C404.137 186.58 404.271 186.958 404.271 187.497V200.106ZM400.806 181.879C400.806 181.361 400.984 180.927 401.343 180.579C401.701 180.231 402.161 180.056 402.717 180.056C403.275 180.056 403.722 180.231 404.062 180.579C404.402 180.927 404.57 181.361 404.57 181.879C404.57 182.398 404.402 182.831 404.062 183.178C403.722 183.528 403.275 183.702 402.717 183.702C402.161 183.702 401.701 183.528 401.343 183.178C400.984 182.831 400.806 182.398 400.806 181.879Z" fill="#0D5F9B"/>
<path d="M414.874 188.27C413.679 188.27 412.733 188.698 412.035 189.555C411.337 190.412 410.99 191.616 410.99 193.17C410.99 194.724 411.328 195.924 412.006 196.77C412.683 197.618 413.638 198.04 414.874 198.04C416.109 198.04 417.066 197.618 417.742 196.77C418.419 195.924 418.759 194.724 418.759 193.17C418.759 191.636 418.414 190.436 417.727 189.57C417.04 188.703 416.089 188.27 414.874 188.27ZM421.956 193.17C421.956 194.306 421.787 195.332 421.447 196.247C421.11 197.164 420.636 197.941 420.028 198.578C419.422 199.215 418.678 199.709 417.802 200.057C416.925 200.405 415.951 200.58 414.874 200.58C413.798 200.58 412.823 200.405 411.946 200.057C411.07 199.709 410.327 199.215 409.72 198.578C409.111 197.941 408.639 197.164 408.302 196.247C407.962 195.332 407.792 194.306 407.792 193.17C407.792 192.035 407.962 191.009 408.302 190.092C408.639 189.177 409.116 188.4 409.736 187.762C410.352 187.125 411.099 186.632 411.975 186.282C412.851 185.934 413.818 185.76 414.874 185.76C415.929 185.76 416.896 185.934 417.773 186.282C418.649 186.632 419.396 187.128 420.013 187.776C420.631 188.425 421.11 189.201 421.447 190.106C421.787 191.013 421.956 192.035 421.956 193.17Z" fill="#0D5F9B"/>
<path d="M433.955 188.963C433.406 188.505 432.665 188.276 431.729 188.276C431.032 188.276 430.409 188.366 429.861 188.544C429.313 188.724 428.841 188.924 428.442 189.143V200.109C428.302 200.168 428.109 200.223 427.86 200.272C427.61 200.323 427.336 200.348 427.037 200.348C426.46 200.348 426.031 200.238 425.753 200.018C425.473 199.8 425.334 199.431 425.334 198.914V189.053C425.334 188.594 425.423 188.226 425.603 187.947C425.783 187.668 426.081 187.39 426.5 187.11C427.058 186.772 427.785 186.463 428.681 186.183C429.577 185.905 430.593 185.766 431.729 185.766C433.661 185.766 435.175 186.199 436.27 187.066C437.366 187.931 437.915 189.243 437.915 190.995V200.109C437.774 200.168 437.575 200.223 437.317 200.272C437.058 200.323 436.778 200.348 436.481 200.348C435.901 200.348 435.473 200.238 435.195 200.018C434.915 199.8 434.777 199.431 434.777 198.914V191.115C434.777 190.138 434.503 189.42 433.955 188.963Z" fill="#0D5F9B"/>
<path d="M452.469 196.308C452.469 197.642 451.97 198.688 450.975 199.445C449.979 200.202 448.535 200.58 446.642 200.58C445.865 200.58 445.148 200.522 444.49 200.402C443.833 200.282 443.27 200.112 442.802 199.893C442.334 199.675 441.97 199.416 441.712 199.116C441.453 198.818 441.322 198.489 441.322 198.131C441.322 197.831 441.398 197.554 441.547 197.293C441.696 197.034 441.901 196.826 442.16 196.666C442.717 197.025 443.355 197.353 444.073 197.652C444.789 197.951 445.627 198.1 446.582 198.1C447.479 198.1 448.166 197.946 448.645 197.637C449.122 197.329 449.361 196.886 449.361 196.308C449.361 195.809 449.196 195.411 448.868 195.112C448.54 194.813 448.056 194.585 447.419 194.425L445.387 193.886C444.032 193.529 443.036 193.04 442.399 192.423C441.76 191.806 441.442 190.959 441.442 189.884C441.442 189.306 441.562 188.763 441.801 188.255C442.04 187.747 442.394 187.309 442.862 186.939C443.33 186.572 443.913 186.282 444.611 186.074C445.308 185.864 446.105 185.76 447.001 185.76C447.717 185.76 448.37 185.814 448.957 185.924C449.545 186.034 450.052 186.184 450.481 186.373C450.909 186.561 451.243 186.796 451.483 187.075C451.722 187.353 451.841 187.653 451.841 187.971C451.841 188.291 451.771 188.565 451.633 188.792C451.492 189.022 451.313 189.206 451.094 189.345C450.736 189.127 450.202 188.887 449.495 188.628C448.788 188.37 448.026 188.241 447.209 188.241C446.374 188.241 445.715 188.385 445.238 188.672C444.76 188.962 444.52 189.364 444.52 189.884C444.52 190.281 444.655 190.611 444.923 190.869C445.193 191.128 445.656 191.337 446.314 191.496L448.046 191.945C449.56 192.344 450.676 192.881 451.393 193.559C452.11 194.236 452.469 195.153 452.469 196.308Z" fill="#0D5F9B"/>
<path d="M76.4968 172.818C76.4968 156.641 63.3834 143.527 47.2064 143.527C31.0295 143.527 17.916 156.641 17.916 172.818C17.916 188.993 31.0295 202.108 47.2064 202.108C63.3834 202.108 76.4968 188.993 76.4968 172.818Z" fill="#0D5F9B"/>
<path d="M239.96 43.7113H310.301V57.5104H253.759V85.1087H307.13V98.9066H253.759V126.436H310.301V140.236H239.96V43.7113Z" fill="#1D99C7"/>
<path d="M430.26 57.5104V126.437H482.627V103.013H456.443V89.2142H496.426V126.437C496.426 128.323 496.066 130.107 495.35 131.789C494.631 133.472 493.644 134.942 492.387 136.197C491.132 137.455 489.662 138.442 487.979 139.159C486.296 139.877 484.512 140.236 482.627 140.236H430.26C428.375 140.236 426.591 139.877 424.91 139.159C423.226 138.442 421.755 137.455 420.499 136.197C419.243 134.942 418.255 133.472 417.539 131.789C416.821 130.107 416.461 128.323 416.461 126.437V57.5104C416.461 55.6268 416.821 53.8429 417.539 52.1611C418.255 50.4767 419.243 49.0197 420.499 47.7849C421.755 46.5526 423.226 45.5642 424.91 44.8222C426.591 44.0816 428.375 43.7113 430.26 43.7113H482.627C484.512 43.7113 486.296 44.0816 487.979 44.8222C489.662 45.5642 491.132 46.5526 492.387 47.7849C493.644 49.0197 494.631 50.4767 495.35 52.1611C496.066 53.8429 496.426 55.6268 496.426 57.5104H430.26Z" fill="#1D99C7"/>
<path d="M562.225 126.711C568.642 126.711 573.579 124.984 577.034 121.529C580.488 118.073 582.217 113.139 582.217 106.721V77.7763C582.217 74.6349 581.768 71.8307 580.87 69.3635C579.971 66.8964 578.66 64.7983 576.933 63.0692C575.205 61.3428 573.106 60.03 570.639 59.1323C568.17 58.2333 565.366 57.7838 562.225 57.7838H526.954V126.711H562.225ZM513.156 140.511V43.9859H562.225C567.386 43.9859 572.041 44.7828 576.193 46.3777C580.343 47.9688 583.888 50.2368 586.829 53.1739C589.766 56.1148 592.032 59.6699 593.626 63.8418C595.219 68.0163 596.015 72.662 596.015 77.7763V106.721C596.015 111.836 595.219 116.482 593.626 120.653C592.032 124.827 589.766 128.385 586.829 131.322C583.888 134.264 580.343 136.528 576.193 138.12C572.041 139.715 567.386 140.511 562.225 140.511H513.156Z" fill="#72AF35"/>
<path d="M394.919 93.0517C394.201 91.3674 393.213 89.8975 391.958 88.6397C390.7 87.3857 389.23 86.3973 387.548 85.6796C385.866 84.9633 384.082 84.6031 382.197 84.6031H335.348V57.0036H395.995C395.995 55.12 395.637 53.336 394.919 51.6555C394.201 49.9712 393.213 48.5141 391.958 47.278C390.7 46.0457 389.23 45.0586 387.548 44.3154C385.866 43.576 384.082 43.2057 382.197 43.2057H335.348C333.463 43.2057 331.679 43.576 329.998 44.3154C328.315 45.0586 326.843 46.0457 325.588 47.278C324.332 48.5141 323.343 49.9712 322.627 51.6555C321.909 53.336 321.549 55.12 321.549 57.0036V84.6031C321.549 86.4867 321.909 88.2707 322.627 89.955C323.343 91.6368 324.332 93.0964 325.588 94.3287C326.843 95.5635 328.315 96.5494 329.998 97.29C331.355 97.8889 332.782 98.2325 334.27 98.3474H335.263C335.29 98.3474 335.315 98.3538 335.342 98.3538H382.191V125.953H321.544C321.544 127.837 321.903 129.621 322.62 131.303C323.339 132.986 324.327 134.444 325.582 135.679C326.84 136.911 328.308 137.9 329.991 138.642C331.674 139.381 333.457 139.751 335.342 139.751H382.191C384.076 139.751 385.86 139.381 387.542 138.642C389.225 137.9 390.695 136.911 391.951 135.679C393.208 134.444 394.196 132.986 394.914 131.303C395.63 129.621 395.99 127.837 395.99 125.953V98.3538C395.99 98.3512 395.989 98.3474 395.989 98.3474H395.993C395.985 96.4843 395.629 94.7169 394.919 93.0517Z" fill="#1D99C7"/>
<path d="M683.15 93.0517C682.433 91.3674 681.444 89.8975 680.189 88.6397C678.931 87.3857 677.461 86.3973 675.78 85.6796C674.098 84.9633 672.314 84.6031 670.429 84.6031H623.58V57.0036H684.227C684.227 55.12 683.868 53.336 683.15 51.6555C682.433 49.9712 681.444 48.5141 680.189 47.278C678.931 46.0457 677.461 45.0586 675.78 44.3154C674.098 43.576 672.314 43.2057 670.429 43.2057H623.58C621.695 43.2057 619.911 43.576 618.229 44.3154C616.546 45.0586 615.075 46.0457 613.82 47.278C612.563 48.5141 611.575 49.9712 610.858 51.6555C610.141 53.336 609.78 55.12 609.78 57.0036V84.6031C609.78 86.4867 610.141 88.2707 610.858 89.955C611.575 91.6368 612.563 93.0964 613.82 94.3287C615.075 95.5635 616.546 96.5494 618.229 97.29C619.587 97.8889 621.013 98.2325 622.502 98.3474H623.494C623.521 98.3474 623.547 98.3538 623.573 98.3538H670.423V125.953H609.775C609.775 127.837 610.134 129.621 610.852 131.303C611.571 132.986 612.558 134.444 613.813 135.679C615.071 136.911 616.54 137.9 618.223 138.642C619.906 139.381 621.688 139.751 623.573 139.751H670.423C672.307 139.751 674.091 139.381 675.773 138.642C677.456 137.9 678.926 136.911 680.183 135.679C681.439 134.444 682.428 132.986 683.145 131.303C683.862 129.621 684.222 127.837 684.222 125.953V98.3538C684.222 98.3512 684.22 98.3474 684.22 98.3474H684.224C684.217 96.4843 683.862 94.7169 683.15 93.0517Z" fill="#72AF35"/>
</svg>
